<svg width="26" height="32" viewBox="0 0 26 32" xmlns="http://www.w3.org/2000/svg" xmlns:xlink="http://www.w3.org/1999/xlink"><defs><path d="M21.848 31.665H2.89c-1.563 0-2.786-1.29-2.786-2.786V2.786C.104 1.223 1.395 0 2.89 0h11.824c.747 0 1.495.272 1.97.815L23.82 7.95c.544.544.815 1.223.815 1.97v18.96c0 1.494-1.223 2.785-2.786 2.785z" id="a"/></defs><g fill="none" fill-rule="evenodd"><mask id="b" fill="#fff"><use xlink:href="#a"/></mask><use fill="#45A1FF" opacity=".6" xlink:href="#a"/><path d="M24.303 10.647h-7.52a2.731 2.731 0 0 1-2.732-2.73V.395" stroke="#FFF" stroke-width="2" stroke-linecap="round" mask="url(#b)"/><path d="M7.283 8.939h1.636M7.283 15.78h10.258M7.283 22.62h10.258" stroke="#0060DF" stroke-width="2" stroke-linecap="round" mask="url(#b)"/></g></svg>